<svg width="145" height="37" viewBox="0 0 145 37" fill="none" xmlns="http://www.w3.org/2000/svg">
<path d="M20.1135 12.8889V0.888916H26.7188V35.1889H20.1135V33.2889V31.9809L19.241 32.9554C17.6399 34.7437 15.3765 35.8889 12.1084 35.8889C5.81734 35.8889 0.5 30.3517 0.5 23.0889C0.5 15.8261 5.81734 10.2889 12.1084 10.2889C15.3856 10.2889 17.7386 11.4399 19.2312 13.2111L20.1135 14.2582V12.8889ZM13.6094 29.7889H13.6165L13.6237 29.7887C15.4813 29.7357 17.1109 29.0967 18.2783 27.9301C19.448 26.7612 20.1135 25.1026 20.1135 23.0889C20.1135 21.0766 19.4489 19.3938 18.2804 18.2123C17.112 17.0311 15.4774 16.3889 13.6094 16.3889C11.7414 16.3889 10.1067 17.0311 8.93842 18.2123C7.76984 19.3938 7.10524 21.0766 7.10524 23.0889C7.10524 25.1012 7.76984 26.784 8.93842 27.9655C10.1067 29.1468 11.7414 29.7889 13.6094 29.7889Z" fill="black" stroke="black"/>
<path d="M43.7298 30.0888C45.7741 30.0888 47.4947 29.3736 48.6188 28.3143L53.8921 31.3379C51.5048 34.3085 48.0753 35.8888 43.6298 35.8888C39.4424 35.8888 36.071 34.48 33.7484 32.1949C31.425 29.909 30.1201 26.7161 30.1201 23.0888C30.1201 15.8578 35.3071 10.2888 43.0294 10.2888C50.1386 10.2888 55.3382 15.7448 55.3382 23.0888C55.3382 23.9993 55.2677 24.832 55.1291 25.5888H37.6256H36.8974L37.159 26.2684C37.7027 27.6812 38.6114 28.6501 39.7704 29.2568C40.917 29.857 42.2809 30.0888 43.7298 30.0888ZM48.333 20.9888H48.9897L48.815 20.3558C48.3842 18.7951 47.5388 17.6918 46.47 16.9844C45.4087 16.2819 44.1566 15.9888 42.9293 15.9888C41.3981 15.9888 40.0871 16.3588 39.0572 17.1098C38.0247 17.8627 37.3175 18.9676 36.9427 20.3587L36.773 20.9888H37.4255H48.333Z" fill="black" stroke="black"/>
<path d="M69.1216 26.6463L74.3116 10.989H74.489H74.5146H74.5276H74.5407H74.5945H74.7079H74.8288H74.9568H74.9899H75.0066H75.0234H75.0916H75.2327H75.3056H75.3799H75.4557H75.5327H75.6111H75.6908H75.7717H75.8538H75.937H76.0212H76.0638H76.0851H76.1066H76.128H76.1496H76.1712H76.1928H76.2146H76.2363H76.2582H76.2801H76.302H76.324H76.3461H76.3682H76.3904H76.4126H76.4348H76.4572H76.4795H76.502H76.5244H76.5469H76.5695H76.5921H76.6148H76.6375H76.6602H76.683H76.7058H76.7287H76.7516H76.7745H76.7975H76.8206H76.8436H76.8667H76.8899H76.913H76.9363H76.9595H76.9828H77.0061H77.0294H77.0528H77.0762H77.0997H77.1231H77.1466H77.1702H77.1937H77.2173H77.2409H77.2645H77.2882H77.3118H77.3355H77.3593H77.383H77.4068H77.4305H77.4543H77.4782H77.502H77.5259H77.5497H77.5736H77.5975H77.6214H77.6454H77.6693H77.6933H77.7172H77.7412H77.7652H77.7892H77.8132H77.8372H77.8612H77.8852H77.9092H77.9333H77.9573H77.9813H78.0054H78.0294H78.0534H78.1496H78.2457H78.3417H78.3897H78.4376H78.4615H78.4854H78.5094H78.5333H78.6287H78.7239H78.8187H78.9132H79.0072H79.1008H79.1938H79.2402H79.2633H79.2863H79.3323H79.3553H79.3782H79.5599H79.914H80.0003H80.0431H80.0644H80.0856H80.2531H80.4161H80.4957H80.5741H80.6512H80.6893H80.7081H80.727H80.8013H80.8741H80.9455H80.9806H81.0153H81.0496H81.0835H81.117H81.1501H81.1827H81.215H81.2468H81.2781H81.309H81.3243H81.3395H81.3695H81.399H81.4281H81.4386L72.5015 35.189H64.5923L55.6552 10.989H62.9823L68.1723 26.6463L68.647 28.0781L69.1216 26.6463Z" fill="black" stroke="black"/>
<path d="M83.958 10.989H90.5633V35.189H83.958V10.989Z" fill="black" stroke="black"/>
<path d="M94.165 23.0888C94.165 15.8653 99.6448 10.2888 107.074 10.2888C111.618 10.2888 115.616 12.6047 117.794 16.108L112.066 19.4035C111.005 17.7038 109.146 16.7888 106.974 16.7888C103.39 16.7888 100.77 19.4182 100.77 23.0888C100.77 24.9566 101.413 26.5387 102.53 27.655C103.647 28.7706 105.204 29.3888 106.974 29.3888C109.13 29.3888 111.069 28.4025 112.072 26.7776L117.802 30.0744C115.716 33.5691 111.719 35.8888 107.074 35.8888C99.6448 35.8888 94.165 30.3124 94.165 23.0888Z" fill="black" stroke="black"/>
<path d="M132.892 30.0888C134.936 30.0888 136.657 29.3736 137.781 28.3143L143.054 31.3379C140.667 34.3085 137.237 35.8888 132.792 35.8888C128.605 35.8888 125.233 34.48 122.91 32.1949C120.587 29.909 119.282 26.7161 119.282 23.0888C119.282 15.8603 124.567 10.2888 132.191 10.2888C139.301 10.2888 144.5 15.7448 144.5 23.0888C144.5 23.9993 144.43 24.832 144.291 25.5888H126.788H126.06L126.321 26.2684C126.865 27.6812 127.774 28.6501 128.933 29.2568C130.079 29.857 131.443 30.0888 132.892 30.0888ZM137.595 20.9888H138.252L138.077 20.3558C137.646 18.7951 136.801 17.6918 135.732 16.9844C134.671 16.2819 133.419 15.9888 132.191 15.9888C130.66 15.9888 129.349 16.3588 128.319 17.1098C127.287 17.8627 126.58 18.9676 126.205 20.3587L126.035 20.9888H126.688H137.595Z" fill="black" stroke="black"/>
</svg>
